HIERARCHY
ROOT hip
{
  OFFSET 0 0 0
  CHANNELS 6 Xposition Yposition Zposition Zrotation Yrotation Xrotation
  JOINT abdomen
  {
    OFFSET 0 20.6881 -0.73152
    CHANNELS 3 Zrotation Xrotation Yrotation
    JOINT chest
    {
      OFFSET 0 11.7043 -0.48768
      CHANNELS 3 Zrotation Xrotation Yrotation
      JOINT neck
      {
        OFFSET 0 22.1894 -2.19456
        CHANNELS 3 Zrotation Xrotation Yrotation
        JOINT head
        {
          OFFSET -0.24384 7.07133 1.2192
          CHANNELS 3 Zrotation Xrotation Yrotation
          JOINT leftEye
          {
            OFFSET 4.14528 8.04674 8.04672
            CHANNELS 3 Zrotation Xrotation Yrotation
            End Site
            {
              OFFSET 1 0 0
            }
          }
          JOINT rightEye
          {
            OFFSET -3.6576 8.04674 8.04672
            CHANNELS 3 Zrotation Xrotation Yrotation
            End Site
            {
              OFFSET 1 0 0
            }
          }
        }
      }
      JOINT rCollar
      {
        OFFSET -2.68224 19.2634 -4.8768
        CHANNELS 3 Zrotation Xrotation Yrotation
        JOINT rShldr
        {
          OFFSET -8.77824 -1.95073 1.46304
          CHANNELS 3 Zrotation Xrotation Yrotation
          JOINT rForeArm
          {
            OFFSET -28.1742 -1.7115 0.48768
            CHANNELS 3 Zrotation Xrotation Yrotation
            JOINT rHand
            {
              OFFSET -22.5879 0.773209 7.07136
              CHANNELS 3 Zrotation Xrotation Yrotation
              JOINT rThumb1
              {
                OFFSET -1.2192 -0.487915 3.41376
                CHANNELS 3 Zrotation Xrotation Yrotation
                JOINT rThumb2
                {
                  OFFSET -3.37035 -0.52449 3.41376
                  CHANNELS 3 Zrotation Xrotation Yrotation
                  End Site
                  {
                    OFFSET -1.78271 -1.18214 1.43049
                  }
                }
              }
              JOINT rIndex1
              {
                OFFSET -7.75947 0.938293 5.60832
                CHANNELS 3 Zrotation Xrotation Yrotation
                JOINT rIndex2
                {
                  OFFSET -2.54057 -0.884171 1.56538
                  CHANNELS 3 Zrotation Xrotation Yrotation
                  End Site
                  {
                    OFFSET -1.62519 -0.234802 1.16502
                  }
                }
              }
              JOINT rMid1
              {
                OFFSET -8.24714 1.18213 3.41376
                CHANNELS 3 Zrotation Xrotation Yrotation
                JOINT rMid2
                {
                  OFFSET -3.10165 -0.590103 1.0647
                  CHANNELS 3 Zrotation Xrotation Yrotation
                  End Site
                  {
                    OFFSET -2.48547 -0.328903 0.83742
                  }
                }
              }
              JOINT rRing1
              {
                OFFSET -8.82822 0.546677 1.51678
                CHANNELS 3 Zrotation Xrotation Yrotation
                JOINT rRing2
                {
                  OFFSET -2.60934 -0.819778 -0.0198488
                  CHANNELS 3 Zrotation Xrotation Yrotation
                  End Site
                  {
                    OFFSET -2.33842 -0.294052 0.168128
                  }
                }
              }
              JOINT rPinky1
              {
                OFFSET -8.27202 -0.0477905 -0.4584
                CHANNELS 3 Zrotation Xrotation Yrotation
                JOINT rPinky2
                {
                  OFFSET -1.82734 -0.647385 -0.700984
                  CHANNELS 3 Zrotation Xrotation Yrotation
                  End Site
                  {
                    OFFSET -1.69225 -0.51767 -0.607171
                  }
                }
              }
            }
          }
        }
      }
      JOINT lCollar
      {
        OFFSET 2.68224 19.2634 -4.8768
        CHANNELS 3 Zrotation Xrotation Yrotation
        JOINT lShldr
        {
          OFFSET 8.77824 -1.95073 1.46304
          CHANNELS 3 Zrotation Xrotation Yrotation
          JOINT lForeArm
          {
            OFFSET 28.1742 -1.7115 0.48768
            CHANNELS 3 Zrotation Xrotation Yrotation
            JOINT lHand
            {
              OFFSET 22.5879 0.773209 7.07136
              CHANNELS 3 Zrotation Xrotation Yrotation
              JOINT lThumb1
              {
                OFFSET 1.2192 -0.487915 3.41376
                CHANNELS 3 Zrotation Xrotation Yrotation
                JOINT lThumb2
                {
                  OFFSET 3.37035 -0.52449 3.41376
                  CHANNELS 3 Zrotation Xrotation Yrotation
                  End Site
                  {
                    OFFSET 1.78271 -1.18214 1.43049
                  }
                }
              }
              JOINT lIndex1
              {
                OFFSET 7.75947 0.938293 5.60832
                CHANNELS 3 Zrotation Xrotation Yrotation
                JOINT lIndex2
                {
                  OFFSET 2.54057 -0.884171 1.56538
                  CHANNELS 3 Zrotation Xrotation Yrotation
                  End Site
                  {
                    OFFSET 1.62519 -0.234802 1.16502
                  }
                }
              }
              JOINT lMid1
              {
                OFFSET 8.24714 1.18213 3.41376
                CHANNELS 3 Zrotation Xrotation Yrotation
                JOINT lMid2
                {
                  OFFSET 3.10165 -0.590103 1.0647
                  CHANNELS 3 Zrotation Xrotation Yrotation
                  End Site
                  {
                    OFFSET 2.48547 -0.328903 0.83742
                  }
                }
              }
              JOINT lRing1
              {
                OFFSET 8.82822 0.546677 1.51678
                CHANNELS 3 Zrotation Xrotation Yrotation
                JOINT lRing2
                {
                  OFFSET 2.60934 -0.819778 -0.0198488
                  CHANNELS 3 Zrotation Xrotation Yrotation
                  End Site
                  {
                    OFFSET 2.33842 -0.294052 0.168128
                  }
                }
              }
              JOINT lPinky1
              {
                OFFSET 8.27202 -0.0477905 -0.4584
                CHANNELS 3 Zrotation Xrotation Yrotation
                JOINT lPinky2
                {
                  OFFSET 1.82734 -0.647385 -0.700984
                  CHANNELS 3 Zrotation Xrotation Yrotation
                  End Site
                  {
                    OFFSET 1.69225 -0.51767 -0.607171
                  }
                }
              }
            }
          }
        }
      }
    }
  }
  JOINT rButtock
  {
    OFFSET -8.77824 4.35084 1.2192
    CHANNELS 3 Zrotation Xrotation Yrotation
    JOINT rThigh
    {
      OFFSET 0 -1.70687 -2.19456
      CHANNELS 3 Zrotation Xrotation Yrotation
      JOINT rShin
      {
        OFFSET 0 -36.8199 0.73152
        CHANNELS 3 Zrotation Xrotation Yrotation
        JOINT rFoot
        {
          OFFSET 0.73152 -45.1104 -5.12064
          CHANNELS 3 Zrotation Xrotation Yrotation
          End Site
          {
            OFFSET -1.1221 -3.69964 12.103
          }
        }
      }
    }
  }
  JOINT lButtock
  {
    OFFSET 8.77824 4.35084 1.2192
    CHANNELS 3 Zrotation Xrotation Yrotation
    JOINT lThigh
    {
      OFFSET 0 -1.70687 -2.19456
      CHANNELS 3 Zrotation Xrotation Yrotation
      JOINT lShin
      {
        OFFSET 0 -36.8199 0.73152
        CHANNELS 3 Zrotation Xrotation Yrotation
        JOINT lFoot
        {
          OFFSET -0.73152 -45.1104 -5.12064
          CHANNELS 3 Zrotation Xrotation Yrotation
          End Site
          {
            OFFSET 1.1221 -3.69964 12.103
          }
        }
      }
    }
  }
}
MOTION
Frames:	6
Frame Time:	0.00833333
-128.121 71.6559 4.30397 0.0 0.0 0.0 0.984355 -0.00436093 0.0272514 0.271545 -0.00455347 0.0470445 2.41158e-14 0.0 -1.98785e-16 7.2016e-14 3.18055e-15 -5.9946e-16 -0.0 0.0 0.0 -0.0 0.0 0.0 1.20255e-14 -2.52363e-18 4.96962e-17 2.529e-13 3.72721e-17 -3.97569e-16 4.33853e-12 -1.29309e-12 -9.22361e-14 4.95817e-11 1.29946e-12 -3.21236e-13 1.16969e-10 1.2109e-14 -8.74653e-13 2.02e-10 1.90833e-14 -1.51871e-12 1.16974e-10 1.15295e-14 -8.87375e-13 7.73091 5.47488 0.417314 1.16968e-10 1.21259e-14 -8.74653e-13 2.90554 0.965183 0.102902 1.16971e-10 1.20265e-14 -8.72267e-13 10.2786 0.731801 0.0259123 1.16963e-10 1.39149e-14 -8.5875e-13 2.22167 -0.733487 -0.20892 1.19288e-14 -3.68839e-18 -2.48481e-16 2.49777e-13 3.72721e-17 -2.18663e-15 4.32695e-12 1.29787e-12 -6.67917e-14 4.95875e-11 -1.29051e-12 -3.24417e-13 1.16959e-10 1.50695e-14 -8.6193e-13 2.01995e-10 2.54444e-14 -1.49725e-12 1.16956e-10 1.55052e-14 -8.52389e-13 -7.73091 5.47488 -0.417314 1.1696e-10 1.50082e-14 -8.65111e-13 -2.90554 0.965183 -0.102902 1.16949e-10 1.54058e-14 -8.66701e-13 -10.2786 0.731801 -0.0259123 1.16967e-10 1.63003e-14 -8.81014e-13 -2.22167 -0.733487 0.20892 -2.03217e-16 0.0 -3.88251e-19 1.24882 -5.45297 -0.109164 6.9215e-05 4.32234 0.02388 -0.510675 1.12951 0.0812347 2.03217e-16 0.0 3.88251e-19 0.249671 -1.91924 0.0129232 0.00928365 -2.07855 0.0766843 0.496254 3.99654 -0.137945
-128.52 67.6911 -8.07159 176.627 3.6601 -165.916 0.547641 7.40681 0.466086 0.602245 -1.61151 0.334963 0.162863 -3.25149 0.699427 -3.10801 -3.01629 1.18456 -0.0 0.0 0.0 -0.0 0.0 0.0 -7.64185e-14 -1.68231e-14 -1.46371e-16 18.9105 4.49171 8.53144 -13.1979 -10.2391 13.9502 0.00830966 -2.02364 -0.283765 3.51715e-10 -6.13611e-10 -5.42049e-11 6.07072e-10 -1.05579e-09 -9.10416e-11 3.51722e-10 -6.13619e-10 -5.42169e-11 7.73091 5.47488 0.417314 3.51714e-10 -6.13611e-10 -5.42059e-11 2.90554 0.965183 0.102902 3.51719e-10 -6.13611e-10 -5.42037e-11 10.2786 0.731801 0.0259123 3.5171e-10 -6.1361e-10 -5.41906e-11 2.22167 -0.733487 -0.20892 -7.64884e-14 -1.68258e-14 -3.83204e-16 -18.7109 7.90206 -9.13783 12.8105 -9.81717 -13.7946 -0.0703536 -5.89111 0.812233 2.18496e-10 4.40247e-10 -7.41109e-12 3.76482e-10 7.61035e-10 -9.85131e-12 2.18495e-10 4.40248e-10 -7.40045e-12 -7.73091 5.47488 -0.417314 2.18498e-10 4.40247e-10 -7.4134e-12 -2.90554 0.965183 -0.102902 2.18489e-10 4.40248e-10 -7.41476e-12 -10.2786 0.731801 -0.0259123 2.18504e-10 4.4025e-10 -7.42763e-12 -2.22167 -0.733487 0.20892 -2.03217e-16 0.0 -3.88251e-19 -6.98582 -18.3183 -7.01049 0.136328 19.0481 0.318124 -0.257674 -1.26256 -0.90044 2.03217e-16 0.0 3.88251e-19 4.11771 -16.9597 6.78787 -0.130321 16.5699 -0.214322 0.389957 -0.402826 1.33691
-128.507 67.6926 -8.07682 176.698 3.6746 -165.943 -0.0422062 15.2399 0.959113 0.970566 -3.31184 0.641098 0.436219 -6.67863 1.44676 -6.28664 -6.19459 2.43967 -0.0 0.0 0.0 -0.0 0.0 0.0 -1.75205e-13 -3.63768e-14 -4.06887e-16 37.4625 8.89761 17.7134 -21.6908 -18.995 30.0154 -0.00474165 -4.15411 -0.583712 6.35366e-10 -1.39107e-09 -1.35446e-10 1.09671e-09 -2.3947e-09 -2.28404e-10 6.35376e-10 -1.39109e-09 -1.35457e-10 7.73091 5.47488 0.417314 6.35365e-10 -1.39107e-09 -1.35448e-10 2.90554 0.965183 0.102902 6.35372e-10 -1.39107e-09 -1.35446e-10 10.2786 0.731801 0.0259123 6.35364e-10 -1.39107e-09 -1.35433e-10 2.22167 -0.733487 -0.20892 -1.75245e-13 -3.63811e-14 -5.74612e-16 -35.7144 15.5856 -19.3606 21.1979 -18.2678 -29.5808 0.0405489 -12.0983 1.69762 3.2253e-10 9.12614e-10 1.18396e-11 5.54695e-10 1.57554e-09 2.65647e-11 3.22531e-10 9.12615e-10 1.18515e-11 -7.73091 5.47488 -0.417314 3.22533e-10 9.12615e-10 1.18382e-11 -2.90554 0.965183 -0.102902 3.22526e-10 9.12616e-10 1.18371e-11 -10.2786 0.731801 -0.0259123 3.22537e-10 9.12619e-10 1.18257e-11 -2.22167 -0.733487 0.20892 -2.03217e-16 0.0 -3.88251e-19 -19.5495 -31.1774 -15.9206 0.0824839 34.6115 0.721053 -0.0796239 -3.78641 -1.94324 2.03217e-16 0.0 3.88251e-19 12.6683 -32.0899 15.8019 -0.0309259 36.2851 -0.62473 0.52335 -5.04743 2.90225
-128.478 67.6937 -8.10301 176.736 3.6865 -165.946 -0.689886 22.2236 1.439 1.31225 -4.8249 0.913642 0.729653 -9.7486 2.12561 -8.94613 -9.03329 3.59339 -0.0 0.0 0.0 -0.0 0.0 0.0 -2.53307e-13 -5.04641e-14 -5.38505e-16 52.79 12.2745 26.1566 -25.1074 -23.2515 45.7662 -0.0354916 -6.07033 -0.855562 8.21207e-10 -1.84086e-09 -1.60866e-10 1.41722e-09 -3.16741e-09 -2.70087e-10 8.21218e-10 -1.84088e-09 -1.60876e-10 7.73091 5.47488 0.417314 8.21206e-10 -1.84086e-09 -1.60868e-10 2.90554 0.965183 0.102902 8.21214e-10 -1.84086e-09 -1.60866e-10 10.2786 0.731801 0.0259123 8.21206e-10 -1.84086e-09 -1.60854e-10 2.22167 -0.733487 -0.20892 -2.53323e-13 -5.04699e-14 -6.5265e-16 -48.4448 21.2241 -29.3105 24.7314 -22.4711 -44.9609 0.310929 -17.6587 2.54377 4.21571e-10 1.32071e-09 -2.05094e-11 7.25456e-10 2.28305e-09 -2.65594e-11 4.21573e-10 1.32071e-09 -2.04966e-11 -7.73091 5.47488 -0.417314 4.21575e-10 1.32071e-09 -2.051e-11 -2.90554 0.965183 -0.102902 4.2157e-10 1.32071e-09 -2.05109e-11 -10.2786 0.731801 -0.0259123 4.21578e-10 1.32072e-09 -2.05209e-11 -2.22167 -0.733487 0.20892 -2.03217e-16 0.0 -3.88251e-19 -35.1613 -41.2194 -26.6859 -0.248991 48.4931 1.28945 0.00147327 -6.0396 -2.8791 2.03217e-16 0.0 3.88251e-19 25.7802 -43.9367 27.5402 0.466539 53.86 -1.3049 0.862009 -9.17595 4.3415
-128.455 67.6927 -8.12928 176.767 3.7036 -165.936 -1.21251 27.0891 1.79452 1.55262 -5.8703 1.0995 0.902937 -11.9312 2.60757 -10.5704 -11.0373 4.45685 -0.0 0.0 0.0 -0.0 0.0 0.0 -2.79694e-13 -5.08854e-14 -3.47873e-16 62.7947 14.2167 32.2203 -26.0417 -23.5425 56.9398 -0.0685864 -7.45145 -1.05324 7.6252e-10 -1.47145e-09 -4.67319e-11 1.31487e-09 -2.52467e-09 -7.25747e-11 7.62532e-10 -1.47147e-09 -4.67414e-11 7.73091 5.47488 0.417314 7.62519e-10 -1.47145e-09 -4.67351e-11 2.90554 0.965183 0.102902 7.62527e-10 -1.47145e-09 -4.67335e-11 10.2786 0.731801 0.0259123 7.6252e-10 -1.47145e-09 -4.67223e-11 2.22167 -0.733487 -0.20892 -2.79704e-13 -5.08924e-14 -4.47265e-16 -56.0269 24.1417 -36.7284 25.7767 -22.8749 -55.8592 0.609596 -21.6159 3.19241 5.0813e-10 1.56813e-09 -1.81858e-10 8.7759e-10 2.72306e-09 -3.03534e-10 5.08133e-10 1.56813e-09 -1.81845e-10 -7.73091 5.47488 -0.417314 5.08135e-10 1.56813e-09 -1.81858e-10 -2.90554 0.965183 -0.102902 5.0813e-10 1.56813e-09 -1.81859e-10 -10.2786 0.731801 -0.0259123 5.08137e-10 1.56814e-09 -1.81867e-10 -2.22167 -0.733487 0.20892 -2.03217e-16 0.0 -3.88251e-19 -49.1946 -46.8347 -36.5476 -0.797052 58.1758 1.9656 0.0147426 -7.62327 -3.53176 2.03217e-16 0.0 3.88251e-19 39.217 -50.4249 39.1419 1.43688 66.0885 -2.35663 1.23241 -12.0405 5.40173
-128.437 67.6893 -8.14465 176.782 3.7096 -165.899 -1.41259 28.9932 1.89927 1.63047 -6.25529 1.16125 0.790595 -12.8948 2.79086 -10.7947 -11.8881 4.90321 -0.0 0.0 0.0 -0.0 0.0 0.0 -2.25384e-13 -2.76269e-14 1.91058e-15 66.4681 14.9258 34.6906 -26.3 -23.0274 61.2163 -0.0860061 -8.0793 -1.14363 2.49729e-10 4.96804e-10 3.5072e-10 4.26951e-10 8.82182e-10 6.11124e-10 2.4974e-10 4.96782e-10 3.50712e-10 7.73091 5.47488 0.417314 2.49729e-10 4.96802e-10 3.50717e-10 2.90554 0.965183 0.102902 2.49735e-10 4.96802e-10 3.50718e-10 10.2786 0.731801 0.0259123 2.49729e-10 4.96801e-10 3.50727e-10 2.22167 -0.733487 -0.20892 -2.25413e-13 -2.76348e-14 1.76111e-15 -58.7106 24.9419 -39.6695 26.0534 -22.4081 -59.9768 0.76743 -23.3695 3.49446 6.12798e-10 1.62368e-09 -6.3657e-10 1.06722e-09 2.85434e-09 -1.08833e-09 6.12799e-10 1.62368e-09 -6.36559e-10 -7.73091 5.47488 -0.417314 6.12802e-10 1.62368e-09 -6.36569e-10 -2.90554 0.965183 -0.102902 6.12796e-10 1.62368e-09 -6.3657e-10 -10.2786 0.731801 -0.0259123 6.12805e-10 1.62369e-09 -6.36578e-10 -2.22167 -0.733487 0.20892 -2.03217e-16 0.0 -3.88251e-19 -55.4826 -48.6361 -41.0215 -1.14779 61.9874 2.35822 0.00911051 -8.28115 -3.78552 2.03217e-16 0.0 3.88251e-19 45.5798 -52.3613 44.6166 2.18978 70.8371 -3.13226 1.4284 -13.1534 5.88537
